  0
SECTION
  2
HEADER
  9
$ACADVER
  1
AC1009
  9
$FILLMODE
 70
0
  9
$EXTMIN
 10
0.0000
 20
-1.2032
 30
0.0000
  9
$EXTMAX
 10
50.1766
 20
19.4385
 30
0.0000
  0
ENDSEC
  0
SECTION
  2
TABLES
  0
TABLE
  2
LTYPE
 70
1
  0
LTYPE
  2
CONTINUOUS
 70
64
  3
Solid line
 72
65
 73
0
 40
0
  0
ENDTAB
  0
TABLE
  2
LAYER
 70
255
  0
LAYER
  2
20
 70
64
 62
178
  6
CONTINUOUS
  0
LAYER
  2
31
 70
64
 62
251
  6
CONTINUOUS
  0
ENDTAB
  0
ENDSEC
  0
SECTION
  2
BLOCKS
  0
BLOCK
  8
0
  2
RECT
 70
64
 10
0.0000
 20
0.0000
 30
0.0000
  3
RECT
  0
SOLID
  8
0
 10
-0.5000
 20
-0.5000
 30
0.0000
 11
0.5000
 21
-0.5000
 31
0.0000
 12
-0.5000
 22
0.5000
 32
0.0000
 13
0.5000
 23
0.5000
 33
0.0000
  0
ENDBLK
  8
0
  0
BLOCK
  8
0
  2
PIE
 70
64
 10
0.0000
 20
0.0000
 30
0.0000
  3
PIE
  0
CIRCLE
  8
0
 10
0.0000
 20
0.0000
 30
0.0000
 40
0.5000
  0
ENDBLK
  8
0
  0
BLOCK
  8
0
  2
OCTAGONP
 70
64
 10
0.0000
 20
0.0000
 30
0.0000
  3
OCTAGONP
  0
POLYLINE
  8
0
 66
1
 10
0.0000
 20
0.0000
 30
0.0000
 40
0.0000
 41
0.0000
 70
1
  0
VERTEX
  8
0
 10
-0.5000
 20
-0.2071
 30
0.0000
  0
VERTEX
  8
0
 10
-0.5000
 20
0.2071
 30
0.0000
  0
VERTEX
  8
0
 10
-0.2071
 20
0.5000
 30
0.0000
  0
VERTEX
  8
0
 10
0.2071
 20
0.5000
 30
0.0000
  0
VERTEX
  8
0
 10
0.5000
 20
0.2071
 30
0.0000
  0
VERTEX
  8
0
 10
0.5000
 20
-0.2071
 30
0.0000
  0
VERTEX
  8
0
 10
0.2071
 20
-0.5000
 30
0.0000
  0
VERTEX
  8
0
 10
-0.2071
 20
-0.5000
 30
0.0000
  0
SEQEND
  8
0
  0
ENDBLK
  8
0
  0
BLOCK
  8
0
  2
SQUAREP
 70
64
 10
0.0000
 20
0.0000
 30
0.0000
  3
SQUAREP
  0
SOLID
  8
0
 10
-0.5000
 20
-0.5000
 30
0.0000
 11
0.5000
 21
-0.5000
 31
0.0000
 12
-0.5000
 22
0.5000
 32
0.0000
 13
0.5000
 23
0.5000
 33
0.0000
  0
ENDBLK
  8
0
  0
BLOCK
  8
0
  2
ROUNDP
 70
64
 10
0.0000
 20
0.0000
 30
0.0000
  3
ROUNDP
  0
CIRCLE
  8
0
 10
0.0000
 20
0.0000
 30
0.0000
 40
0.5000
  0
ENDBLK
  8
0
  0
BLOCK
  8
0
  2
ANNULUSP
 70
64
 10
0.0000
 20
0.0000
 30
0.0000
  3
ANNULUSP
  0
CIRCLE
  8
0
 10
0.0000
 20
0.0000
 30
0.0000
 40
0.5000
  0
ENDBLK
  8
0
  0
BLOCK
  8
0
  2
THERMALP
 70
64
 10
0.0000
 20
0.0000
 30
0.0000
  3
THERMALP
  0
LINE
  8
0
 10
-0.2379
 20
0.4500
 30
0.0000
 11
0.2379
 21
0.4500
 31
0.0000
  0
LINE
  8
0
 10
0.4500
 20
0.2379
 30
0.0000
 11
0.4500
 21
-0.2379
 31
0.0000
  0
LINE
  8
0
 10
0.2379
 20
-0.4500
 30
0.0000
 11
-0.2379
 21
-0.4500
 31
0.0000
  0
LINE
  8
0
 10
-0.4500
 20
-0.2379
 30
0.0000
 11
-0.4500
 21
0.2379
 31
0.0000
  0
ENDBLK
  8
0
  0
BLOCK
  8
0
  2
OCTAGONV
 70
64
 10
0.0000
 20
0.0000
 30
0.0000
  3
OCTAGONV
  0
POLYLINE
  8
0
 66
1
 10
0.0000
 20
0.0000
 30
0.0000
 40
0.0000
 41
0.0000
 70
1
  0
VERTEX
  8
0
 10
-0.5000
 20
-0.2071
 30
0.0000
  0
VERTEX
  8
0
 10
-0.5000
 20
0.2071
 30
0.0000
  0
VERTEX
  8
0
 10
-0.2071
 20
0.5000
 30
0.0000
  0
VERTEX
  8
0
 10
0.2071
 20
0.5000
 30
0.0000
  0
VERTEX
  8
0
 10
0.5000
 20
0.2071
 30
0.0000
  0
VERTEX
  8
0
 10
0.5000
 20
-0.2071
 30
0.0000
  0
VERTEX
  8
0
 10
0.2071
 20
-0.5000
 30
0.0000
  0
VERTEX
  8
0
 10
-0.2071
 20
-0.5000
 30
0.0000
  0
SEQEND
  8
0
  0
ENDBLK
  8
0
  0
BLOCK
  8
0
  2
SQUAREV
 70
64
 10
0.0000
 20
0.0000
 30
0.0000
  3
SQUAREV
  0
SOLID
  8
0
 10
-0.5000
 20
-0.5000
 30
0.0000
 11
0.5000
 21
-0.5000
 31
0.0000
 12
-0.5000
 22
0.5000
 32
0.0000
 13
0.5000
 23
0.5000
 33
0.0000
  0
ENDBLK
  8
0
  0
BLOCK
  8
0
  2
ROUNDV
 70
64
 10
0.0000
 20
0.0000
 30
0.0000
  3
ROUNDV
  0
CIRCLE
  8
0
 10
0.0000
 20
0.0000
 30
0.0000
 40
0.5000
  0
ENDBLK
  8
0
  0
BLOCK
  8
0
  2
ANNULUSV
 70
64
 10
0.0000
 20
0.0000
 30
0.0000
  3
ANNULUSV
  0
CIRCLE
  8
0
 10
0.0000
 20
0.0000
 30
0.0000
 40
0.5000
  0
ENDBLK
  8
0
  0
BLOCK
  8
0
  2
THERMALV
 70
64
 10
0.0000
 20
0.0000
 30
0.0000
  3
THERMALV
  0
LINE
  8
0
 10
-0.2379
 20
0.4500
 30
0.0000
 11
0.2379
 21
0.4500
 31
0.0000
  0
LINE
  8
0
 10
0.4500
 20
0.2379
 30
0.0000
 11
0.4500
 21
-0.2379
 31
0.0000
  0
LINE
  8
0
 10
0.2379
 20
-0.4500
 30
0.0000
 11
-0.2379
 21
-0.4500
 31
0.0000
  0
LINE
  8
0
 10
-0.4500
 20
-0.2379
 30
0.0000
 11
-0.4500
 21
0.2379
 31
0.0000
  0
ENDBLK
  8
0
  0
ENDSEC
  0
SECTION
  2
ENTITIES
  0
LINE
  8
20
 10
0.0000
 20
0.0000
 30
0.0000
 11
45.0000
 21
0.0000
 31
0.0000
  0
LINE
  8
20
 10
45.0000
 20
0.0000
 30
0.0000
 11
45.0000
 21
18.0000
 31
0.0000
  0
LINE
  8
20
 10
45.0000
 20
18.0000
 30
0.0000
 11
0.0000
 21
18.0000
 31
0.0000
  0
LINE
  8
20
 10
0.0000
 20
18.0000
 30
0.0000
 11
0.0000
 21
0.0000
 31
0.0000
  0
CIRCLE
  8
20
 10
43.6250
 20
1.0000
 30
0.0000
 40
0.7500
  0
CIRCLE
  8
20
 10
1.8000
 20
16.3250
 30
0.0000
 40
0.7500
  0
INSERT
  8
31
  2
RECT
 10
41.9050
 20
5.0850
 30
0.0000
 41
0.0876
 42
0.2976
 43
1.0000
 50
180.0000
  0
INSERT
  8
31
  2
RECT
 10
41.8250
 20
5.6150
 30
0.0000
 41
0.0876
 42
0.2976
 43
1.0000
 50
270.0000
  0
INSERT
  8
31
  2
RECT
 10
41.8250
 20
6.0450
 30
0.0000
 41
0.0876
 42
0.2976
 43
1.0000
 50
270.0000
  0
INSERT
  8
31
  2
RECT
 10
41.8250
 20
6.4750
 30
0.0000
 41
0.0876
 42
0.2976
 43
1.0000
 50
270.0000
  0
INSERT
  8
31
  2
RECT
 10
41.8250
 20
6.9050
 30
0.0000
 41
0.0876
 42
0.2976
 43
1.0000
 50
270.0000
  0
INSERT
  8
31
  2
RECT
 10
41.9050
 20
7.4350
 30
0.0000
 41
0.0876
 42
0.2976
 43
1.0000
 50
180.0000
  0
INSERT
  8
31
  2
RECT
 10
41.4750
 20
7.4350
 30
0.0000
 41
0.0876
 42
0.2976
 43
1.0000
 50
180.0000
  0
INSERT
  8
31
  2
RECT
 10
41.0450
 20
7.4350
 30
0.0000
 41
0.0876
 42
0.2976
 43
1.0000
 50
180.0000
  0
INSERT
  8
31
  2
RECT
 10
40.6150
 20
7.4350
 30
0.0000
 41
0.0876
 42
0.2976
 43
1.0000
 50
180.0000
  0
INSERT
  8
31
  2
RECT
 10
40.1850
 20
7.4350
 30
0.0000
 41
0.0876
 42
0.2976
 43
1.0000
 50
180.0000
  0
INSERT
  8
31
  2
RECT
 10
39.7550
 20
7.4350
 30
0.0000
 41
0.0876
 42
0.2976
 43
1.0000
 50
180.0000
  0
INSERT
  8
31
  2
RECT
 10
39.3250
 20
7.4350
 30
0.0000
 41
0.0876
 42
0.2976
 43
1.0000
 50
180.0000
  0
INSERT
  8
31
  2
RECT
 10
38.8950
 20
7.4350
 30
0.0000
 41
0.0876
 42
0.2976
 43
1.0000
 50
180.0000
  0
INSERT
  8
31
  2
RECT
 10
38.9750
 20
6.9050
 30
0.0000
 41
0.0876
 42
0.2976
 43
1.0000
 50
270.0000
  0
INSERT
  8
31
  2
RECT
 10
38.9750
 20
6.4750
 30
0.0000
 41
0.0876
 42
0.2976
 43
1.0000
 50
270.0000
  0
INSERT
  8
31
  2
RECT
 10
38.9750
 20
6.0450
 30
0.0000
 41
0.0876
 42
0.2976
 43
1.0000
 50
270.0000
  0
INSERT
  8
31
  2
RECT
 10
38.9750
 20
5.6150
 30
0.0000
 41
0.0876
 42
0.2976
 43
1.0000
 50
270.0000
  0
INSERT
  8
31
  2
RECT
 10
38.8950
 20
5.0850
 30
0.0000
 41
0.0876
 42
0.2976
 43
1.0000
 50
180.0000
  0
INSERT
  8
31
  2
RECT
 10
39.3250
 20
5.0850
 30
0.0000
 41
0.0876
 42
0.2976
 43
1.0000
 50
180.0000
  0
INSERT
  8
31
  2
RECT
 10
39.7550
 20
5.0850
 30
0.0000
 41
0.0876
 42
0.2976
 43
1.0000
 50
180.0000
  0
INSERT
  8
31
  2
RECT
 10
40.1850
 20
5.0850
 30
0.0000
 41
0.0876
 42
0.2976
 43
1.0000
 50
180.0000
  0
INSERT
  8
31
  2
RECT
 10
40.6150
 20
5.0850
 30
0.0000
 41
0.0876
 42
0.2976
 43
1.0000
 50
180.0000
  0
INSERT
  8
31
  2
RECT
 10
41.0450
 20
5.0850
 30
0.0000
 41
0.0876
 42
0.2976
 43
1.0000
 50
180.0000
  0
INSERT
  8
31
  2
RECT
 10
41.4750
 20
5.0850
 30
0.0000
 41
0.0876
 42
0.2976
 43
1.0000
 50
180.0000
  0
INSERT
  8
31
  2
RECT
 10
41.4200
 20
14.7200
 30
0.0000
 41
0.2976
 42
0.1476
 43
1.0000
 50
0.0000
  0
INSERT
  8
31
  2
RECT
 10
41.4200
 20
14.2200
 30
0.0000
 41
0.2976
 42
0.1476
 43
1.0000
 50
0.0000
  0
INSERT
  8
31
  2
RECT
 10
41.4200
 20
13.7200
 30
0.0000
 41
0.2976
 42
0.1476
 43
1.0000
 50
0.0000
  0
INSERT
  8
31
  2
RECT
 10
41.4200
 20
13.2200
 30
0.0000
 41
0.2976
 42
0.1476
 43
1.0000
 50
0.0000
  0
INSERT
  8
31
  2
RECT
 10
41.4200
 20
12.7200
 30
0.0000
 41
0.2976
 42
0.1476
 43
1.0000
 50
0.0000
  0
INSERT
  8
31
  2
RECT
 10
42.1450
 20
12.4950
 30
0.0000
 41
0.2976
 42
0.1476
 43
1.0000
 50
90.0000
  0
INSERT
  8
31
  2
RECT
 10
42.6450
 20
12.4950
 30
0.0000
 41
0.2976
 42
0.1476
 43
1.0000
 50
90.0000
  0
INSERT
  8
31
  2
RECT
 10
43.1450
 20
12.4950
 30
0.0000
 41
0.2976
 42
0.1476
 43
1.0000
 50
90.0000
  0
INSERT
  8
31
  2
RECT
 10
43.8700
 20
12.7200
 30
0.0000
 41
0.2976
 42
0.1476
 43
1.0000
 50
0.0000
  0
INSERT
  8
31
  2
RECT
 10
43.8700
 20
13.2200
 30
0.0000
 41
0.2976
 42
0.1476
 43
1.0000
 50
0.0000
  0
INSERT
  8
31
  2
RECT
 10
43.8700
 20
13.7200
 30
0.0000
 41
0.2976
 42
0.1476
 43
1.0000
 50
0.0000
  0
INSERT
  8
31
  2
RECT
 10
43.8700
 20
14.2200
 30
0.0000
 41
0.2976
 42
0.1476
 43
1.0000
 50
0.0000
  0
INSERT
  8
31
  2
RECT
 10
43.8700
 20
14.7200
 30
0.0000
 41
0.2976
 42
0.1476
 43
1.0000
 50
0.0000
  0
INSERT
  8
31
  2
RECT
 10
43.1450
 20
14.9450
 30
0.0000
 41
0.2976
 42
0.1476
 43
1.0000
 50
90.0000
  0
INSERT
  8
31
  2
RECT
 10
42.6450
 20
14.9450
 30
0.0000
 41
0.2976
 42
0.1476
 43
1.0000
 50
90.0000
  0
INSERT
  8
31
  2
RECT
 10
42.1450
 20
14.9450
 30
0.0000
 41
0.2976
 42
0.1476
 43
1.0000
 50
90.0000
  0
INSERT
  8
31
  2
RECT
 10
37.6250
 20
16.9500
 30
0.0000
 41
0.2976
 42
0.1476
 43
1.0000
 50
0.0000
  0
INSERT
  8
31
  2
RECT
 10
37.6250
 20
16.4500
 30
0.0000
 41
0.2976
 42
0.1476
 43
1.0000
 50
0.0000
  0
INSERT
  8
31
  2
RECT
 10
37.6250
 20
15.9500
 30
0.0000
 41
0.2976
 42
0.1476
 43
1.0000
 50
0.0000
  0
INSERT
  8
31
  2
RECT
 10
37.6250
 20
15.4500
 30
0.0000
 41
0.2976
 42
0.1476
 43
1.0000
 50
0.0000
  0
INSERT
  8
31
  2
RECT
 10
37.6250
 20
14.9500
 30
0.0000
 41
0.2976
 42
0.1476
 43
1.0000
 50
0.0000
  0
INSERT
  8
31
  2
RECT
 10
38.3500
 20
14.7250
 30
0.0000
 41
0.2976
 42
0.1476
 43
1.0000
 50
90.0000
  0
INSERT
  8
31
  2
RECT
 10
38.8500
 20
14.7250
 30
0.0000
 41
0.2976
 42
0.1476
 43
1.0000
 50
90.0000
  0
INSERT
  8
31
  2
RECT
 10
39.3500
 20
14.7250
 30
0.0000
 41
0.2976
 42
0.1476
 43
1.0000
 50
90.0000
  0
INSERT
  8
31
  2
RECT
 10
40.0750
 20
14.9500
 30
0.0000
 41
0.2976
 42
0.1476
 43
1.0000
 50
0.0000
  0
INSERT
  8
31
  2
RECT
 10
40.0750
 20
15.4500
 30
0.0000
 41
0.2976
 42
0.1476
 43
1.0000
 50
0.0000
  0
INSERT
  8
31
  2
RECT
 10
40.0750
 20
15.9500
 30
0.0000
 41
0.2976
 42
0.1476
 43
1.0000
 50
0.0000
  0
INSERT
  8
31
  2
RECT
 10
40.0750
 20
16.4500
 30
0.0000
 41
0.2976
 42
0.1476
 43
1.0000
 50
0.0000
  0
INSERT
  8
31
  2
RECT
 10
40.0750
 20
16.9500
 30
0.0000
 41
0.2976
 42
0.1476
 43
1.0000
 50
0.0000
  0
INSERT
  8
31
  2
RECT
 10
39.3500
 20
17.1750
 30
0.0000
 41
0.2976
 42
0.1476
 43
1.0000
 50
90.0000
  0
INSERT
  8
31
  2
RECT
 10
38.8500
 20
17.1750
 30
0.0000
 41
0.2976
 42
0.1476
 43
1.0000
 50
90.0000
  0
INSERT
  8
31
  2
RECT
 10
38.3500
 20
17.1750
 30
0.0000
 41
0.2976
 42
0.1476
 43
1.0000
 50
90.0000
  0
INSERT
  8
31
  2
RECT
 10
24.6900
 20
4.1150
 30
0.0000
 41
0.4476
 42
0.6476
 43
1.0000
 50
0.0000
  0
INSERT
  8
31
  2
RECT
 10
26.2900
 20
4.1150
 30
0.0000
 41
0.4476
 42
0.6476
 43
1.0000
 50
0.0000
  0
INSERT
  8
31
  2
RECT
 10
20.3250
 20
5.1000
 30
0.0000
 41
0.4476
 42
0.6476
 43
1.0000
 50
90.0000
  0
INSERT
  8
31
  2
RECT
 10
20.3250
 20
6.7000
 30
0.0000
 41
0.4476
 42
0.6476
 43
1.0000
 50
90.0000
  0
INSERT
  8
31
  2
RECT
 10
27.9950
 20
6.1500
 30
0.0000
 41
0.4476
 42
0.6476
 43
1.0000
 50
270.0000
  0
INSERT
  8
31
  2
RECT
 10
27.9950
 20
4.5500
 30
0.0000
 41
0.4476
 42
0.6476
 43
1.0000
 50
270.0000
  0
INSERT
  8
31
  2
RECT
 10
12.6500
 20
6.6250
 30
0.0000
 41
0.4476
 42
0.6476
 43
1.0000
 50
270.0000
  0
INSERT
  8
31
  2
RECT
 10
12.6500
 20
5.0250
 30
0.0000
 41
0.4476
 42
0.6476
 43
1.0000
 50
270.0000
  0
INSERT
  8
31
  2
RECT
 10
10.7500
 20
6.6500
 30
0.0000
 41
0.4476
 42
0.6476
 43
1.0000
 50
270.0000
  0
INSERT
  8
31
  2
RECT
 10
10.7500
 20
5.0500
 30
0.0000
 41
0.4476
 42
0.6476
 43
1.0000
 50
270.0000
  0
INSERT
  8
31
  2
RECT
 10
40.4950
 20
3.9200
 30
0.0000
 41
0.4476
 42
0.6476
 43
1.0000
 50
270.0000
  0
INSERT
  8
31
  2
RECT
 10
40.4950
 20
2.3200
 30
0.0000
 41
0.4476
 42
0.6476
 43
1.0000
 50
270.0000
  0
INSERT
  8
31
  2
RECT
 10
25.4500
 20
2.3750
 30
0.0000
 41
0.4476
 42
0.6476
 43
1.0000
 50
270.0000
  0
INSERT
  8
31
  2
RECT
 10
25.4500
 20
0.7750
 30
0.0000
 41
0.4476
 42
0.6476
 43
1.0000
 50
270.0000
  0
INSERT
  8
31
  2
RECT
 10
23.5500
 20
2.3500
 30
0.0000
 41
0.4476
 42
0.6476
 43
1.0000
 50
270.0000
  0
INSERT
  8
31
  2
RECT
 10
23.5500
 20
0.7500
 30
0.0000
 41
0.4476
 42
0.6476
 43
1.0000
 50
270.0000
  0
INSERT
  8
31
  2
RECT
 10
37.6750
 20
1.0000
 30
0.0000
 41
0.4476
 42
0.6476
 43
1.0000
 50
90.0000
  0
INSERT
  8
31
  2
RECT
 10
37.6750
 20
2.6000
 30
0.0000
 41
0.4476
 42
0.6476
 43
1.0000
 50
90.0000
  0
INSERT
  8
31
  2
RECT
 10
29.2000
 20
2.4250
 30
0.0000
 41
0.4476
 42
0.6476
 43
1.0000
 50
270.0000
  0
INSERT
  8
31
  2
RECT
 10
29.2000
 20
0.8250
 30
0.0000
 41
0.4476
 42
0.6476
 43
1.0000
 50
270.0000
  0
INSERT
  8
31
  2
RECT
 10
42.4500
 20
9.3750
 30
0.0000
 41
0.4476
 42
0.6476
 43
1.0000
 50
0.0000
  0
INSERT
  8
31
  2
RECT
 10
44.0500
 20
9.3750
 30
0.0000
 41
0.4476
 42
0.6476
 43
1.0000
 50
0.0000
  0
INSERT
  8
31
  2
RECT
 10
21.6000
 20
2.3000
 30
0.0000
 41
0.4476
 42
0.6476
 43
1.0000
 50
270.0000
  0
INSERT
  8
31
  2
RECT
 10
21.6000
 20
0.7000
 30
0.0000
 41
0.4476
 42
0.6476
 43
1.0000
 50
270.0000
  0
INSERT
  8
31
  2
RECT
 10
11.7250
 20
9.1750
 30
0.0000
 41
0.4476
 42
0.6476
 43
1.0000
 50
180.0000
  0
INSERT
  8
31
  2
RECT
 10
10.1250
 20
9.1750
 30
0.0000
 41
0.4476
 42
0.6476
 43
1.0000
 50
180.0000
  0
INSERT
  8
31
  2
RECT
 10
42.6750
 20
16.8250
 30
0.0000
 41
0.4476
 42
0.6476
 43
1.0000
 50
0.0000
  0
INSERT
  8
31
  2
RECT
 10
44.2750
 20
16.8250
 30
0.0000
 41
0.4476
 42
0.6476
 43
1.0000
 50
0.0000
  0
INSERT
  8
31
  2
RECT
 10
41.9250
 20
3.0250
 30
0.0000
 41
0.4476
 42
0.6476
 43
1.0000
 50
270.0000
  0
INSERT
  8
31
  2
RECT
 10
41.9250
 20
1.4250
 30
0.0000
 41
0.4476
 42
0.6476
 43
1.0000
 50
270.0000
  0
INSERT
  8
31
  2
RECT
 10
8.9750
 20
9.0500
 30
0.0000
 41
0.4476
 42
0.6476
 43
1.0000
 50
180.0000
  0
INSERT
  8
31
  2
RECT
 10
7.3750
 20
9.0500
 30
0.0000
 41
0.4476
 42
0.6476
 43
1.0000
 50
180.0000
  0
INSERT
  8
31
  2
RECT
 10
39.2000
 20
0.8500
 30
0.0000
 41
0.4476
 42
0.6476
 43
1.0000
 50
90.0000
  0
INSERT
  8
31
  2
RECT
 10
39.2000
 20
2.4500
 30
0.0000
 41
0.4476
 42
0.6476
 43
1.0000
 50
90.0000
  0
INSERT
  8
31
  2
RECT
 10
11.6250
 20
1.5250
 30
0.0000
 41
0.4476
 42
0.6476
 43
1.0000
 50
90.0000
  0
INSERT
  8
31
  2
RECT
 10
11.6250
 20
3.1250
 30
0.0000
 41
0.4476
 42
0.6476
 43
1.0000
 50
90.0000
  0
INSERT
  8
31
  2
RECT
 10
13.6250
 20
1.5250
 30
0.0000
 41
0.4476
 42
0.6476
 43
1.0000
 50
90.0000
  0
INSERT
  8
31
  2
RECT
 10
13.6250
 20
3.1250
 30
0.0000
 41
0.4476
 42
0.6476
 43
1.0000
 50
90.0000
  0
INSERT
  8
31
  2
RECT
 10
30.7250
 20
2.4500
 30
0.0000
 41
0.4476
 42
0.6476
 43
1.0000
 50
270.0000
  0
INSERT
  8
31
  2
RECT
 10
30.7250
 20
0.8500
 30
0.0000
 41
0.4476
 42
0.6476
 43
1.0000
 50
270.0000
  0
INSERT
  8
31
  2
RECT
 10
32.4750
 20
2.4250
 30
0.0000
 41
0.4476
 42
0.6476
 43
1.0000
 50
270.0000
  0
INSERT
  8
31
  2
RECT
 10
32.4750
 20
0.8250
 30
0.0000
 41
0.4476
 42
0.6476
 43
1.0000
 50
270.0000
  0
INSERT
  8
31
  2
RECT
 10
15.8000
 20
1.5250
 30
0.0000
 41
0.4476
 42
0.6476
 43
1.0000
 50
90.0000
  0
INSERT
  8
31
  2
RECT
 10
15.8000
 20
3.1250
 30
0.0000
 41
0.4476
 42
0.6476
 43
1.0000
 50
90.0000
  0
INSERT
  8
31
  2
RECT
 10
8.9000
 20
6.6750
 30
0.0000
 41
0.4476
 42
0.6476
 43
1.0000
 50
270.0000
  0
INSERT
  8
31
  2
RECT
 10
8.9000
 20
5.0750
 30
0.0000
 41
0.4476
 42
0.6476
 43
1.0000
 50
270.0000
  0
INSERT
  8
31
  2
RECT
 10
27.5500
 20
2.4000
 30
0.0000
 41
0.4476
 42
0.6476
 43
1.0000
 50
270.0000
  0
INSERT
  8
31
  2
RECT
 10
27.5500
 20
0.8000
 30
0.0000
 41
0.4476
 42
0.6476
 43
1.0000
 50
270.0000
  0
INSERT
  8
31
  2
RECT
 10
30.1250
 20
3.9250
 30
0.0000
 41
0.6476
 42
0.6476
 43
1.0000
 50
270.0000
  0
INSERT
  8
31
  2
RECT
 10
31.6250
 20
3.9250
 30
0.0000
 41
0.6476
 42
0.6476
 43
1.0000
 50
270.0000
  0
INSERT
  8
31
  2
RECT
 10
36.4050
 20
7.2050
 30
0.0000
 41
0.7476
 42
0.9476
 43
1.0000
 50
270.0000
  0
INSERT
  8
31
  2
RECT
 10
36.4050
 20
5.3050
 30
0.0000
 41
0.7476
 42
0.9476
 43
1.0000
 50
270.0000
  0
INSERT
  8
31
  2
RECT
 10
39.7600
 20
11.0450
 30
0.0000
 41
0.4476
 42
0.6476
 43
1.0000
 50
0.0000
  0
INSERT
  8
31
  2
RECT
 10
41.3600
 20
11.0450
 30
0.0000
 41
0.4476
 42
0.6476
 43
1.0000
 50
0.0000
  0
INSERT
  8
31
  2
RECT
 10
38.2800
 20
9.7250
 30
0.0000
 41
0.4476
 42
0.6476
 43
1.0000
 50
0.0000
  0
INSERT
  8
31
  2
RECT
 10
39.8800
 20
9.7250
 30
0.0000
 41
0.4476
 42
0.6476
 43
1.0000
 50
0.0000
  0
INSERT
  8
31
  2
RECT
 10
14.0300
 20
10.7200
 30
0.0000
 41
0.7476
 42
0.9476
 43
1.0000
 50
90.0000
  0
INSERT
  8
31
  2
RECT
 10
14.0300
 20
12.6200
 30
0.0000
 41
0.7476
 42
0.9476
 43
1.0000
 50
90.0000
  0
INSERT
  8
31
  2
RECT
 10
35.7750
 20
0.9250
 30
0.0000
 41
0.4476
 42
0.6476
 43
1.0000
 50
180.0000
  0
INSERT
  8
31
  2
RECT
 10
34.1750
 20
0.9250
 30
0.0000
 41
0.4476
 42
0.6476
 43
1.0000
 50
180.0000
  0
INSERT
  8
31
  2
RECT
 10
37.8000
 20
5.4750
 30
0.0000
 41
0.4476
 42
0.6476
 43
1.0000
 50
270.0000
  0
INSERT
  8
31
  2
RECT
 10
37.8000
 20
3.8750
 30
0.0000
 41
0.4476
 42
0.6476
 43
1.0000
 50
270.0000
  0
INSERT
  8
31
  2
RECT
 10
35.4000
 20
3.9300
 30
0.0000
 41
0.4476
 42
0.6476
 43
1.0000
 50
180.0000
  0
INSERT
  8
31
  2
RECT
 10
33.8000
 20
3.9300
 30
0.0000
 41
0.4476
 42
0.6476
 43
1.0000
 50
180.0000
  0
CIRCLE
  8
20
 10
10.5000
 20
16.5750
 30
0.0000
 40
0.4500
  0
CIRCLE
  8
20
 10
13.5000
 20
16.5750
 30
0.0000
 40
0.4500
  0
INSERT
  8
31
  2
RECT
 10
9.7500
 20
14.8250
 30
0.0000
 41
0.5476
 42
1.3476
 43
1.0000
 50
180.0000
  0
INSERT
  8
31
  2
RECT
 10
11.2500
 20
14.8250
 30
0.0000
 41
0.5476
 42
1.3476
 43
1.0000
 50
180.0000
  0
INSERT
  8
31
  2
RECT
 10
14.2500
 20
14.8250
 30
0.0000
 41
0.5476
 42
1.3476
 43
1.0000
 50
180.0000
  0
INSERT
  8
31
  2
RECT
 10
8.3500
 20
17.5750
 30
0.0000
 41
0.8476
 42
0.4476
 43
1.0000
 50
0.0000
  0
INSERT
  8
31
  2
RECT
 10
8.3500
 20
15.4750
 30
0.0000
 41
0.8476
 42
0.6476
 43
1.0000
 50
0.0000
  0
INSERT
  8
31
  2
RECT
 10
15.6500
 20
17.5750
 30
0.0000
 41
0.8476
 42
0.4476
 43
1.0000
 50
0.0000
  0
INSERT
  8
31
  2
RECT
 10
15.6500
 20
15.4750
 30
0.0000
 41
0.8476
 42
0.6476
 43
1.0000
 50
0.0000
  0
LINE
  8
20
 10
18.5000
 20
11.4500
 30
0.0000
 11
18.9000
 21
11.4500
 31
0.0000
  0
LINE
  8
20
 10
18.5000
 20
1.5500
 30
0.0000
 11
18.9000
 21
1.5500
 31
0.0000
  0
LINE
  8
20
 10
7.4000
 20
11.4500
 30
0.0000
 11
6.7000
 21
11.4500
 31
0.0000
  0
LINE
  8
20
 10
7.4000
 20
1.5500
 30
0.0000
 11
6.7000
 21
1.5500
 31
0.0000
  0
LINE
  8
20
 10
19.2708
 20
10.9083
 30
0.0000
 11
19.2999
 21
10.9374
 31
0.0000
  0
LINE
  8
20
 10
19.2999
 20
10.9374
 30
0.0000
 11
19.3582
 21
10.9374
 31
0.0000
  0
LINE
  8
20
 10
19.3582
 20
10.9374
 30
0.0000
 11
19.3873
 21
10.9083
 31
0.0000
  0
LINE
  8
20
 10
19.3873
 20
10.9083
 30
0.0000
 11
19.3873
 21
10.8792
 31
0.0000
  0
LINE
  8
20
 10
19.3873
 20
10.8792
 30
0.0000
 11
19.3582
 21
10.8501
 31
0.0000
  0
LINE
  8
20
 10
19.3582
 20
10.8501
 30
0.0000
 11
19.2999
 21
10.8501
 31
0.0000
  0
LINE
  8
20
 10
19.2999
 20
10.8501
 30
0.0000
 11
19.2708
 21
10.8209
 31
0.0000
  0
LINE
  8
20
 10
19.2708
 20
10.8209
 30
0.0000
 11
19.2708
 21
10.7918
 31
0.0000
  0
LINE
  8
20
 10
19.2708
 20
10.7918
 30
0.0000
 11
19.2999
 21
10.7627
 31
0.0000
  0
LINE
  8
20
 10
19.2999
 20
10.7627
 30
0.0000
 11
19.3582
 21
10.7627
 31
0.0000
  0
LINE
  8
20
 10
19.3582
 20
10.7627
 30
0.0000
 11
19.3873
 21
10.7918
 31
0.0000
  0
LINE
  8
20
 10
19.2031
 20
10.9374
 30
0.0000
 11
19.2031
 21
10.7627
 31
0.0000
  0
LINE
  8
20
 10
19.2031
 20
10.7627
 30
0.0000
 11
19.0866
 21
10.7627
 31
0.0000
  0
LINE
  8
20
 10
18.9316
 20
10.9374
 30
0.0000
 11
18.9899
 21
10.9374
 31
0.0000
  0
LINE
  8
20
 10
18.9899
 20
10.9374
 30
0.0000
 11
19.0190
 21
10.9083
 31
0.0000
  0
LINE
  8
20
 10
19.0190
 20
10.9083
 30
0.0000
 11
19.0190
 21
10.7918
 31
0.0000
  0
LINE
  8
20
 10
19.0190
 20
10.7918
 30
0.0000
 11
18.9899
 21
10.7627
 31
0.0000
  0
LINE
  8
20
 10
18.9899
 20
10.7627
 30
0.0000
 11
18.9316
 21
10.7627
 31
0.0000
  0
LINE
  8
20
 10
18.9316
 20
10.7627
 30
0.0000
 11
18.9025
 21
10.7918
 31
0.0000
  0
LINE
  8
20
 10
18.9025
 20
10.7918
 30
0.0000
 11
18.9025
 21
10.9083
 31
0.0000
  0
LINE
  8
20
 10
18.9025
 20
10.9083
 30
0.0000
 11
18.9316
 21
10.9374
 31
0.0000
  0
LINE
  8
20
 10
18.7766
 20
10.7627
 30
0.0000
 11
18.7766
 21
10.9374
 31
0.0000
  0
LINE
  8
20
 10
18.8348
 20
10.9374
 30
0.0000
 11
18.7183
 21
10.9374
 31
0.0000
  0
LINE
  8
20
 10
18.6507
 20
10.7627
 30
0.0000
 11
18.5342
 21
10.9374
 31
0.0000
  0
LINE
  8
20
 10
18.3500
 20
10.9083
 30
0.0000
 11
18.3791
 21
10.9374
 31
0.0000
  0
LINE
  8
20
 10
18.3791
 20
10.9374
 30
0.0000
 11
18.4374
 21
10.9374
 31
0.0000
  0
LINE
  8
20
 10
18.4374
 20
10.9374
 30
0.0000
 11
18.4665
 21
10.9083
 31
0.0000
  0
LINE
  8
20
 10
18.4665
 20
10.9083
 30
0.0000
 11
18.4665
 21
10.7918
 31
0.0000
  0
LINE
  8
20
 10
18.4665
 20
10.7918
 30
0.0000
 11
18.4374
 21
10.7627
 31
0.0000
  0
LINE
  8
20
 10
18.4374
 20
10.7627
 30
0.0000
 11
18.3791
 21
10.7627
 31
0.0000
  0
LINE
  8
20
 10
18.3791
 20
10.7627
 30
0.0000
 11
18.3500
 21
10.7918
 31
0.0000
  0
LINE
  8
20
 10
18.2824
 20
10.9374
 30
0.0000
 11
18.2824
 21
10.7918
 31
0.0000
  0
LINE
  8
20
 10
18.2824
 20
10.7918
 30
0.0000
 11
18.2532
 21
10.7627
 31
0.0000
  0
LINE
  8
20
 10
18.2532
 20
10.7627
 30
0.0000
 11
18.1950
 21
10.7627
 31
0.0000
  0
LINE
  8
20
 10
18.1950
 20
10.7627
 30
0.0000
 11
18.1659
 21
10.7918
 31
0.0000
  0
LINE
  8
20
 10
18.1659
 20
10.7918
 30
0.0000
 11
18.1659
 21
10.9374
 31
0.0000
  0
LINE
  8
20
 10
18.0400
 20
10.7627
 30
0.0000
 11
18.0400
 21
10.9374
 31
0.0000
  0
LINE
  8
20
 10
18.0982
 20
10.9374
 30
0.0000
 11
17.9817
 21
10.9374
 31
0.0000
  0
LINE
  8
20
 10
17.8267
 20
10.9374
 30
0.0000
 11
17.8849
 21
10.9374
 31
0.0000
  0
LINE
  8
20
 10
17.8849
 20
10.9374
 30
0.0000
 11
17.9140
 21
10.9083
 31
0.0000
  0
LINE
  8
20
 10
17.9140
 20
10.9083
 30
0.0000
 11
17.9140
 21
10.7918
 31
0.0000
  0
LINE
  8
20
 10
17.9140
 20
10.7918
 30
0.0000
 11
17.8849
 21
10.7627
 31
0.0000
  0
LINE
  8
20
 10
17.8849
 20
10.7627
 30
0.0000
 11
17.8267
 21
10.7627
 31
0.0000
  0
LINE
  8
20
 10
17.8267
 20
10.7627
 30
0.0000
 11
17.7976
 21
10.7918
 31
0.0000
  0
LINE
  8
20
 10
17.7976
 20
10.7918
 30
0.0000
 11
17.7976
 21
10.9083
 31
0.0000
  0
LINE
  8
20
 10
17.7976
 20
10.9083
 30
0.0000
 11
17.8267
 21
10.9374
 31
0.0000
  0
LINE
  8
20
 10
17.7299
 20
10.9374
 30
0.0000
 11
17.7299
 21
10.7918
 31
0.0000
  0
LINE
  8
20
 10
17.7299
 20
10.7918
 30
0.0000
 11
17.7008
 21
10.7627
 31
0.0000
  0
LINE
  8
20
 10
17.7008
 20
10.7627
 30
0.0000
 11
17.6425
 21
10.7627
 31
0.0000
  0
LINE
  8
20
 10
17.6425
 20
10.7627
 30
0.0000
 11
17.6134
 21
10.7918
 31
0.0000
  0
LINE
  8
20
 10
17.6134
 20
10.7918
 30
0.0000
 11
17.6134
 21
10.9374
 31
0.0000
  0
LINE
  8
20
 10
17.4875
 20
10.7627
 30
0.0000
 11
17.4875
 21
10.9374
 31
0.0000
  0
LINE
  8
20
 10
17.5457
 20
10.9374
 30
0.0000
 11
17.4292
 21
10.9374
 31
0.0000
  0
LINE
  8
20
 10
19.2708
 20
10.9083
 30
0.0000
 11
19.2999
 21
10.9374
 31
0.0000
  0
LINE
  8
20
 10
19.2999
 20
10.9374
 30
0.0000
 11
19.3582
 21
10.9374
 31
0.0000
  0
LINE
  8
20
 10
19.3582
 20
10.9374
 30
0.0000
 11
19.3873
 21
10.9083
 31
0.0000
  0
LINE
  8
20
 10
19.3873
 20
10.9083
 30
0.0000
 11
19.3873
 21
10.8792
 31
0.0000
  0
LINE
  8
20
 10
19.3873
 20
10.8792
 30
0.0000
 11
19.3582
 21
10.8501
 31
0.0000
  0
LINE
  8
20
 10
19.3582
 20
10.8501
 30
0.0000
 11
19.2999
 21
10.8501
 31
0.0000
  0
LINE
  8
20
 10
19.2999
 20
10.8501
 30
0.0000
 11
19.2708
 21
10.8209
 31
0.0000
  0
LINE
  8
20
 10
19.2708
 20
10.8209
 30
0.0000
 11
19.2708
 21
10.7918
 31
0.0000
  0
LINE
  8
20
 10
19.2708
 20
10.7918
 30
0.0000
 11
19.2999
 21
10.7627
 31
0.0000
  0
LINE
  8
20
 10
19.2999
 20
10.7627
 30
0.0000
 11
19.3582
 21
10.7627
 31
0.0000
  0
LINE
  8
20
 10
19.3582
 20
10.7627
 30
0.0000
 11
19.3873
 21
10.7918
 31
0.0000
  0
LINE
  8
20
 10
19.2031
 20
10.9374
 30
0.0000
 11
19.2031
 21
10.7627
 31
0.0000
  0
LINE
  8
20
 10
19.2031
 20
10.7627
 30
0.0000
 11
19.0866
 21
10.7627
 31
0.0000
  0
LINE
  8
20
 10
18.9316
 20
10.9374
 30
0.0000
 11
18.9899
 21
10.9374
 31
0.0000
  0
LINE
  8
20
 10
18.9899
 20
10.9374
 30
0.0000
 11
19.0190
 21
10.9083
 31
0.0000
  0
LINE
  8
20
 10
19.0190
 20
10.9083
 30
0.0000
 11
19.0190
 21
10.7918
 31
0.0000
  0
LINE
  8
20
 10
19.0190
 20
10.7918
 30
0.0000
 11
18.9899
 21
10.7627
 31
0.0000
  0
LINE
  8
20
 10
18.9899
 20
10.7627
 30
0.0000
 11
18.9316
 21
10.7627
 31
0.0000
  0
LINE
  8
20
 10
18.9316
 20
10.7627
 30
0.0000
 11
18.9025
 21
10.7918
 31
0.0000
  0
LINE
  8
20
 10
18.9025
 20
10.7918
 30
0.0000
 11
18.9025
 21
10.9083
 31
0.0000
  0
LINE
  8
20
 10
18.9025
 20
10.9083
 30
0.0000
 11
18.9316
 21
10.9374
 31
0.0000
  0
LINE
  8
20
 10
18.7766
 20
10.7627
 30
0.0000
 11
18.7766
 21
10.9374
 31
0.0000
  0
LINE
  8
20
 10
18.8348
 20
10.9374
 30
0.0000
 11
18.7183
 21
10.9374
 31
0.0000
  0
LINE
  8
20
 10
18.6507
 20
10.7627
 30
0.0000
 11
18.5342
 21
10.9374
 31
0.0000
  0
LINE
  8
20
 10
18.3500
 20
10.9083
 30
0.0000
 11
18.3791
 21
10.9374
 31
0.0000
  0
LINE
  8
20
 10
18.3791
 20
10.9374
 30
0.0000
 11
18.4374
 21
10.9374
 31
0.0000
  0
LINE
  8
20
 10
18.4374
 20
10.9374
 30
0.0000
 11
18.4665
 21
10.9083
 31
0.0000
  0
LINE
  8
20
 10
18.4665
 20
10.9083
 30
0.0000
 11
18.4665
 21
10.7918
 31
0.0000
  0
LINE
  8
20
 10
18.4665
 20
10.7918
 30
0.0000
 11
18.4374
 21
10.7627
 31
0.0000
  0
LINE
  8
20
 10
18.4374
 20
10.7627
 30
0.0000
 11
18.3791
 21
10.7627
 31
0.0000
  0
LINE
  8
20
 10
18.3791
 20
10.7627
 30
0.0000
 11
18.3500
 21
10.7918
 31
0.0000
  0
LINE
  8
20
 10
18.2824
 20
10.9374
 30
0.0000
 11
18.2824
 21
10.7918
 31
0.0000
  0
LINE
  8
20
 10
18.2824
 20
10.7918
 30
0.0000
 11
18.2532
 21
10.7627
 31
0.0000
  0
LINE
  8
20
 10
18.2532
 20
10.7627
 30
0.0000
 11
18.1950
 21
10.7627
 31
0.0000
  0
LINE
  8
20
 10
18.1950
 20
10.7627
 30
0.0000
 11
18.1659
 21
10.7918
 31
0.0000
  0
LINE
  8
20
 10
18.1659
 20
10.7918
 30
0.0000
 11
18.1659
 21
10.9374
 31
0.0000
  0
LINE
  8
20
 10
18.0400
 20
10.7627
 30
0.0000
 11
18.0400
 21
10.9374
 31
0.0000
  0
LINE
  8
20
 10
18.0982
 20
10.9374
 30
0.0000
 11
17.9817
 21
10.9374
 31
0.0000
  0
LINE
  8
20
 10
17.8267
 20
10.9374
 30
0.0000
 11
17.8849
 21
10.9374
 31
0.0000
  0
LINE
  8
20
 10
17.8849
 20
10.9374
 30
0.0000
 11
17.9140
 21
10.9083
 31
0.0000
  0
LINE
  8
20
 10
17.9140
 20
10.9083
 30
0.0000
 11
17.9140
 21
10.7918
 31
0.0000
  0
LINE
  8
20
 10
17.9140
 20
10.7918
 30
0.0000
 11
17.8849
 21
10.7627
 31
0.0000
  0
LINE
  8
20
 10
17.8849
 20
10.7627
 30
0.0000
 11
17.8267
 21
10.7627
 31
0.0000
  0
LINE
  8
20
 10
17.8267
 20
10.7627
 30
0.0000
 11
17.7976
 21
10.7918
 31
0.0000
  0
LINE
  8
20
 10
17.7976
 20
10.7918
 30
0.0000
 11
17.7976
 21
10.9083
 31
0.0000
  0
LINE
  8
20
 10
17.7976
 20
10.9083
 30
0.0000
 11
17.8267
 21
10.9374
 31
0.0000
  0
LINE
  8
20
 10
17.7299
 20
10.9374
 30
0.0000
 11
17.7299
 21
10.7918
 31
0.0000
  0
LINE
  8
20
 10
17.7299
 20
10.7918
 30
0.0000
 11
17.7008
 21
10.7627
 31
0.0000
  0
LINE
  8
20
 10
17.7008
 20
10.7627
 30
0.0000
 11
17.6425
 21
10.7627
 31
0.0000
  0
LINE
  8
20
 10
17.6425
 20
10.7627
 30
0.0000
 11
17.6134
 21
10.7918
 31
0.0000
  0
LINE
  8
20
 10
17.6134
 20
10.7918
 30
0.0000
 11
17.6134
 21
10.9374
 31
0.0000
  0
LINE
  8
20
 10
17.4875
 20
10.7627
 30
0.0000
 11
17.4875
 21
10.9374
 31
0.0000
  0
LINE
  8
20
 10
17.5457
 20
10.9374
 30
0.0000
 11
17.4292
 21
10.9374
 31
0.0000
  0
LINE
  8
20
 10
19.2708
 20
2.2083
 30
0.0000
 11
19.2999
 21
2.2374
 31
0.0000
  0
LINE
  8
20
 10
19.2999
 20
2.2374
 30
0.0000
 11
19.3582
 21
2.2374
 31
0.0000
  0
LINE
  8
20
 10
19.3582
 20
2.2374
 30
0.0000
 11
19.3873
 21
2.2083
 31
0.0000
  0
LINE
  8
20
 10
19.3873
 20
2.2083
 30
0.0000
 11
19.3873
 21
2.1792
 31
0.0000
  0
LINE
  8
20
 10
19.3873
 20
2.1792
 30
0.0000
 11
19.3582
 21
2.1501
 31
0.0000
  0
LINE
  8
20
 10
19.3582
 20
2.1501
 30
0.0000
 11
19.2999
 21
2.1501
 31
0.0000
  0
LINE
  8
20
 10
19.2999
 20
2.1501
 30
0.0000
 11
19.2708
 21
2.1209
 31
0.0000
  0
LINE
  8
20
 10
19.2708
 20
2.1209
 30
0.0000
 11
19.2708
 21
2.0918
 31
0.0000
  0
LINE
  8
20
 10
19.2708
 20
2.0918
 30
0.0000
 11
19.2999
 21
2.0627
 31
0.0000
  0
LINE
  8
20
 10
19.2999
 20
2.0627
 30
0.0000
 11
19.3582
 21
2.0627
 31
0.0000
  0
LINE
  8
20
 10
19.3582
 20
2.0627
 30
0.0000
 11
19.3873
 21
2.0918
 31
0.0000
  0
LINE
  8
20
 10
19.2031
 20
2.2374
 30
0.0000
 11
19.2031
 21
2.0627
 31
0.0000
  0
LINE
  8
20
 10
19.2031
 20
2.0627
 30
0.0000
 11
19.0866
 21
2.0627
 31
0.0000
  0
LINE
  8
20
 10
18.9316
 20
2.2374
 30
0.0000
 11
18.9899
 21
2.2374
 31
0.0000
  0
LINE
  8
20
 10
18.9899
 20
2.2374
 30
0.0000
 11
19.0190
 21
2.2083
 31
0.0000
  0
LINE
  8
20
 10
19.0190
 20
2.2083
 30
0.0000
 11
19.0190
 21
2.0918
 31
0.0000
  0
LINE
  8
20
 10
19.0190
 20
2.0918
 30
0.0000
 11
18.9899
 21
2.0627
 31
0.0000
  0
LINE
  8
20
 10
18.9899
 20
2.0627
 30
0.0000
 11
18.9316
 21
2.0627
 31
0.0000
  0
LINE
  8
20
 10
18.9316
 20
2.0627
 30
0.0000
 11
18.9025
 21
2.0918
 31
0.0000
  0
LINE
  8
20
 10
18.9025
 20
2.0918
 30
0.0000
 11
18.9025
 21
2.2083
 31
0.0000
  0
LINE
  8
20
 10
18.9025
 20
2.2083
 30
0.0000
 11
18.9316
 21
2.2374
 31
0.0000
  0
LINE
  8
20
 10
18.7766
 20
2.0627
 30
0.0000
 11
18.7766
 21
2.2374
 31
0.0000
  0
LINE
  8
20
 10
18.8348
 20
2.2374
 30
0.0000
 11
18.7183
 21
2.2374
 31
0.0000
  0
LINE
  8
20
 10
18.6507
 20
2.0627
 30
0.0000
 11
18.5342
 21
2.2374
 31
0.0000
  0
LINE
  8
20
 10
18.3500
 20
2.2083
 30
0.0000
 11
18.3791
 21
2.2374
 31
0.0000
  0
LINE
  8
20
 10
18.3791
 20
2.2374
 30
0.0000
 11
18.4374
 21
2.2374
 31
0.0000
  0
LINE
  8
20
 10
18.4374
 20
2.2374
 30
0.0000
 11
18.4665
 21
2.2083
 31
0.0000
  0
LINE
  8
20
 10
18.4665
 20
2.2083
 30
0.0000
 11
18.4665
 21
2.0918
 31
0.0000
  0
LINE
  8
20
 10
18.4665
 20
2.0918
 30
0.0000
 11
18.4374
 21
2.0627
 31
0.0000
  0
LINE
  8
20
 10
18.4374
 20
2.0627
 30
0.0000
 11
18.3791
 21
2.0627
 31
0.0000
  0
LINE
  8
20
 10
18.3791
 20
2.0627
 30
0.0000
 11
18.3500
 21
2.0918
 31
0.0000
  0
LINE
  8
20
 10
18.2824
 20
2.2374
 30
0.0000
 11
18.2824
 21
2.0918
 31
0.0000
  0
LINE
  8
20
 10
18.2824
 20
2.0918
 30
0.0000
 11
18.2532
 21
2.0627
 31
0.0000
  0
LINE
  8
20
 10
18.2532
 20
2.0627
 30
0.0000
 11
18.1950
 21
2.0627
 31
0.0000
  0
LINE
  8
20
 10
18.1950
 20
2.0627
 30
0.0000
 11
18.1659
 21
2.0918
 31
0.0000
  0
LINE
  8
20
 10
18.1659
 20
2.0918
 30
0.0000
 11
18.1659
 21
2.2374
 31
0.0000
  0
LINE
  8
20
 10
18.0400
 20
2.0627
 30
0.0000
 11
18.0400
 21
2.2374
 31
0.0000
  0
LINE
  8
20
 10
18.0982
 20
2.2374
 30
0.0000
 11
17.9817
 21
2.2374
 31
0.0000
  0
LINE
  8
20
 10
17.8267
 20
2.2374
 30
0.0000
 11
17.8849
 21
2.2374
 31
0.0000
  0
LINE
  8
20
 10
17.8849
 20
2.2374
 30
0.0000
 11
17.9140
 21
2.2083
 31
0.0000
  0
LINE
  8
20
 10
17.9140
 20
2.2083
 30
0.0000
 11
17.9140
 21
2.0918
 31
0.0000
  0
LINE
  8
20
 10
17.9140
 20
2.0918
 30
0.0000
 11
17.8849
 21
2.0627
 31
0.0000
  0
LINE
  8
20
 10
17.8849
 20
2.0627
 30
0.0000
 11
17.8267
 21
2.0627
 31
0.0000
  0
LINE
  8
20
 10
17.8267
 20
2.0627
 30
0.0000
 11
17.7976
 21
2.0918
 31
0.0000
  0
LINE
  8
20
 10
17.7976
 20
2.0918
 30
0.0000
 11
17.7976
 21
2.2083
 31
0.0000
  0
LINE
  8
20
 10
17.7976
 20
2.2083
 30
0.0000
 11
17.8267
 21
2.2374
 31
0.0000
  0
LINE
  8
20
 10
17.7299
 20
2.2374
 30
0.0000
 11
17.7299
 21
2.0918
 31
0.0000
  0
LINE
  8
20
 10
17.7299
 20
2.0918
 30
0.0000
 11
17.7008
 21
2.0627
 31
0.0000
  0
LINE
  8
20
 10
17.7008
 20
2.0627
 30
0.0000
 11
17.6425
 21
2.0627
 31
0.0000
  0
LINE
  8
20
 10
17.6425
 20
2.0627
 30
0.0000
 11
17.6134
 21
2.0918
 31
0.0000
  0
LINE
  8
20
 10
17.6134
 20
2.0918
 30
0.0000
 11
17.6134
 21
2.2374
 31
0.0000
  0
LINE
  8
20
 10
17.4875
 20
2.0627
 30
0.0000
 11
17.4875
 21
2.2374
 31
0.0000
  0
LINE
  8
20
 10
17.5457
 20
2.2374
 30
0.0000
 11
17.4292
 21
2.2374
 31
0.0000
  0
LINE
  8
20
 10
7.8708
 20
10.9083
 30
0.0000
 11
7.8999
 21
10.9374
 31
0.0000
  0
LINE
  8
20
 10
7.8999
 20
10.9374
 30
0.0000
 11
7.9582
 21
10.9374
 31
0.0000
  0
LINE
  8
20
 10
7.9582
 20
10.9374
 30
0.0000
 11
7.9873
 21
10.9083
 31
0.0000
  0
LINE
  8
20
 10
7.9873
 20
10.9083
 30
0.0000
 11
7.9873
 21
10.8792
 31
0.0000
  0
LINE
  8
20
 10
7.9873
 20
10.8792
 30
0.0000
 11
7.9582
 21
10.8501
 31
0.0000
  0
LINE
  8
20
 10
7.9582
 20
10.8501
 30
0.0000
 11
7.8999
 21
10.8501
 31
0.0000
  0
LINE
  8
20
 10
7.8999
 20
10.8501
 30
0.0000
 11
7.8708
 21
10.8209
 31
0.0000
  0
LINE
  8
20
 10
7.8708
 20
10.8209
 30
0.0000
 11
7.8708
 21
10.7918
 31
0.0000
  0
LINE
  8
20
 10
7.8708
 20
10.7918
 30
0.0000
 11
7.8999
 21
10.7627
 31
0.0000
  0
LINE
  8
20
 10
7.8999
 20
10.7627
 30
0.0000
 11
7.9582
 21
10.7627
 31
0.0000
  0
LINE
  8
20
 10
7.9582
 20
10.7627
 30
0.0000
 11
7.9873
 21
10.7918
 31
0.0000
  0
LINE
  8
20
 10
7.8031
 20
10.9374
 30
0.0000
 11
7.8031
 21
10.7627
 31
0.0000
  0
LINE
  8
20
 10
7.8031
 20
10.7627
 30
0.0000
 11
7.6866
 21
10.7627
 31
0.0000
  0
LINE
  8
20
 10
7.5316
 20
10.9374
 30
0.0000
 11
7.5899
 21
10.9374
 31
0.0000
  0
LINE
  8
20
 10
7.5899
 20
10.9374
 30
0.0000
 11
7.6190
 21
10.9083
 31
0.0000
  0
LINE
  8
20
 10
7.6190
 20
10.9083
 30
0.0000
 11
7.6190
 21
10.7918
 31
0.0000
  0
LINE
  8
20
 10
7.6190
 20
10.7918
 30
0.0000
 11
7.5899
 21
10.7627
 31
0.0000
  0
LINE
  8
20
 10
7.5899
 20
10.7627
 30
0.0000
 11
7.5316
 21
10.7627
 31
0.0000
  0
LINE
  8
20
 10
7.5316
 20
10.7627
 30
0.0000
 11
7.5025
 21
10.7918
 31
0.0000
  0
LINE
  8
20
 10
7.5025
 20
10.7918
 30
0.0000
 11
7.5025
 21
10.9083
 31
0.0000
  0
LINE
  8
20
 10
7.5025
 20
10.9083
 30
0.0000
 11
7.5316
 21
10.9374
 31
0.0000
  0
LINE
  8
20
 10
7.3766
 20
10.7627
 30
0.0000
 11
7.3766
 21
10.9374
 31
0.0000
  0
LINE
  8
20
 10
7.4348
 20
10.9374
 30
0.0000
 11
7.3183
 21
10.9374
 31
0.0000
  0
LINE
  8
20
 10
7.2507
 20
10.7627
 30
0.0000
 11
7.1342
 21
10.9374
 31
0.0000
  0
LINE
  8
20
 10
6.9500
 20
10.9083
 30
0.0000
 11
6.9791
 21
10.9374
 31
0.0000
  0
LINE
  8
20
 10
6.9791
 20
10.9374
 30
0.0000
 11
7.0374
 21
10.9374
 31
0.0000
  0
LINE
  8
20
 10
7.0374
 20
10.9374
 30
0.0000
 11
7.0665
 21
10.9083
 31
0.0000
  0
LINE
  8
20
 10
7.0665
 20
10.9083
 30
0.0000
 11
7.0665
 21
10.7918
 31
0.0000
  0
LINE
  8
20
 10
7.0665
 20
10.7918
 30
0.0000
 11
7.0374
 21
10.7627
 31
0.0000
  0
LINE
  8
20
 10
7.0374
 20
10.7627
 30
0.0000
 11
6.9791
 21
10.7627
 31
0.0000
  0
LINE
  8
20
 10
6.9791
 20
10.7627
 30
0.0000
 11
6.9500
 21
10.7918
 31
0.0000
  0
LINE
  8
20
 10
6.8824
 20
10.9374
 30
0.0000
 11
6.8824
 21
10.7918
 31
0.0000
  0
LINE
  8
20
 10
6.8824
 20
10.7918
 30
0.0000
 11
6.8532
 21
10.7627
 31
0.0000
  0
LINE
  8
20
 10
6.8532
 20
10.7627
 30
0.0000
 11
6.7950
 21
10.7627
 31
0.0000
  0
LINE
  8
20
 10
6.7950
 20
10.7627
 30
0.0000
 11
6.7659
 21
10.7918
 31
0.0000
  0
LINE
  8
20
 10
6.7659
 20
10.7918
 30
0.0000
 11
6.7659
 21
10.9374
 31
0.0000
  0
LINE
  8
20
 10
6.6400
 20
10.7627
 30
0.0000
 11
6.6400
 21
10.9374
 31
0.0000
  0
LINE
  8
20
 10
6.6982
 20
10.9374
 30
0.0000
 11
6.5817
 21
10.9374
 31
0.0000
  0
LINE
  8
20
 10
6.4267
 20
10.9374
 30
0.0000
 11
6.4849
 21
10.9374
 31
0.0000
  0
LINE
  8
20
 10
6.4849
 20
10.9374
 30
0.0000
 11
6.5141
 21
10.9083
 31
0.0000
  0
LINE
  8
20
 10
6.5141
 20
10.9083
 30
0.0000
 11
6.5141
 21
10.7918
 31
0.0000
  0
LINE
  8
20
 10
6.5141
 20
10.7918
 30
0.0000
 11
6.4849
 21
10.7627
 31
0.0000
  0
LINE
  8
20
 10
6.4849
 20
10.7627
 30
0.0000
 11
6.4267
 21
10.7627
 31
0.0000
  0
LINE
  8
20
 10
6.4267
 20
10.7627
 30
0.0000
 11
6.3976
 21
10.7918
 31
0.0000
  0
LINE
  8
20
 10
6.3976
 20
10.7918
 30
0.0000
 11
6.3976
 21
10.9083
 31
0.0000
  0
LINE
  8
20
 10
6.3976
 20
10.9083
 30
0.0000
 11
6.4267
 21
10.9374
 31
0.0000
  0
LINE
  8
20
 10
6.3299
 20
10.9374
 30
0.0000
 11
6.3299
 21
10.7918
 31
0.0000
  0
LINE
  8
20
 10
6.3299
 20
10.7918
 30
0.0000
 11
6.3008
 21
10.7627
 31
0.0000
  0
LINE
  8
20
 10
6.3008
 20
10.7627
 30
0.0000
 11
6.2425
 21
10.7627
 31
0.0000
  0
LINE
  8
20
 10
6.2425
 20
10.7627
 30
0.0000
 11
6.2134
 21
10.7918
 31
0.0000
  0
LINE
  8
20
 10
6.2134
 20
10.7918
 30
0.0000
 11
6.2134
 21
10.9374
 31
0.0000
  0
LINE
  8
20
 10
6.0875
 20
10.7627
 30
0.0000
 11
6.0875
 21
10.9374
 31
0.0000
  0
LINE
  8
20
 10
6.1457
 20
10.9374
 30
0.0000
 11
6.0292
 21
10.9374
 31
0.0000
  0
LINE
  8
20
 10
7.8708
 20
10.9083
 30
0.0000
 11
7.8999
 21
10.9374
 31
0.0000
  0
LINE
  8
20
 10
7.8999
 20
10.9374
 30
0.0000
 11
7.9582
 21
10.9374
 31
0.0000
  0
LINE
  8
20
 10
7.9582
 20
10.9374
 30
0.0000
 11
7.9873
 21
10.9083
 31
0.0000
  0
LINE
  8
20
 10
7.9873
 20
10.9083
 30
0.0000
 11
7.9873
 21
10.8792
 31
0.0000
  0
LINE
  8
20
 10
7.9873
 20
10.8792
 30
0.0000
 11
7.9582
 21
10.8501
 31
0.0000
  0
LINE
  8
20
 10
7.9582
 20
10.8501
 30
0.0000
 11
7.8999
 21
10.8501
 31
0.0000
  0
LINE
  8
20
 10
7.8999
 20
10.8501
 30
0.0000
 11
7.8708
 21
10.8209
 31
0.0000
  0
LINE
  8
20
 10
7.8708
 20
10.8209
 30
0.0000
 11
7.8708
 21
10.7918
 31
0.0000
  0
LINE
  8
20
 10
7.8708
 20
10.7918
 30
0.0000
 11
7.8999
 21
10.7627
 31
0.0000
  0
LINE
  8
20
 10
7.8999
 20
10.7627
 30
0.0000
 11
7.9582
 21
10.7627
 31
0.0000
  0
LINE
  8
20
 10
7.9582
 20
10.7627
 30
0.0000
 11
7.9873
 21
10.7918
 31
0.0000
  0
LINE
  8
20
 10
7.8031
 20
10.9374
 30
0.0000
 11
7.8031
 21
10.7627
 31
0.0000
  0
LINE
  8
20
 10
7.8031
 20
10.7627
 30
0.0000
 11
7.6866
 21
10.7627
 31
0.0000
  0
LINE
  8
20
 10
7.5316
 20
10.9374
 30
0.0000
 11
7.5899
 21
10.9374
 31
0.0000
  0
LINE
  8
20
 10
7.5899
 20
10.9374
 30
0.0000
 11
7.6190
 21
10.9083
 31
0.0000
  0
LINE
  8
20
 10
7.6190
 20
10.9083
 30
0.0000
 11
7.6190
 21
10.7918
 31
0.0000
  0
LINE
  8
20
 10
7.6190
 20
10.7918
 30
0.0000
 11
7.5899
 21
10.7627
 31
0.0000
  0
LINE
  8
20
 10
7.5899
 20
10.7627
 30
0.0000
 11
7.5316
 21
10.7627
 31
0.0000
  0
LINE
  8
20
 10
7.5316
 20
10.7627
 30
0.0000
 11
7.5025
 21
10.7918
 31
0.0000
  0
LINE
  8
20
 10
7.5025
 20
10.7918
 30
0.0000
 11
7.5025
 21
10.9083
 31
0.0000
  0
LINE
  8
20
 10
7.5025
 20
10.9083
 30
0.0000
 11
7.5316
 21
10.9374
 31
0.0000
  0
LINE
  8
20
 10
7.3766
 20
10.7627
 30
0.0000
 11
7.3766
 21
10.9374
 31
0.0000
  0
LINE
  8
20
 10
7.4348
 20
10.9374
 30
0.0000
 11
7.3183
 21
10.9374
 31
0.0000
  0
LINE
  8
20
 10
7.2507
 20
10.7627
 30
0.0000
 11
7.1342
 21
10.9374
 31
0.0000
  0
LINE
  8
20
 10
6.9500
 20
10.9083
 30
0.0000
 11
6.9791
 21
10.9374
 31
0.0000
  0
LINE
  8
20
 10
6.9791
 20
10.9374
 30
0.0000
 11
7.0374
 21
10.9374
 31
0.0000
  0
LINE
  8
20
 10
7.0374
 20
10.9374
 30
0.0000
 11
7.0665
 21
10.9083
 31
0.0000
  0
LINE
  8
20
 10
7.0665
 20
10.9083
 30
0.0000
 11
7.0665
 21
10.7918
 31
0.0000
  0
LINE
  8
20
 10
7.0665
 20
10.7918
 30
0.0000
 11
7.0374
 21
10.7627
 31
0.0000
  0
LINE
  8
20
 10
7.0374
 20
10.7627
 30
0.0000
 11
6.9791
 21
10.7627
 31
0.0000
  0
LINE
  8
20
 10
6.9791
 20
10.7627
 30
0.0000
 11
6.9500
 21
10.7918
 31
0.0000
  0
LINE
  8
20
 10
6.8824
 20
10.9374
 30
0.0000
 11
6.8824
 21
10.7918
 31
0.0000
  0
LINE
  8
20
 10
6.8824
 20
10.7918
 30
0.0000
 11
6.8532
 21
10.7627
 31
0.0000
  0
LINE
  8
20
 10
6.8532
 20
10.7627
 30
0.0000
 11
6.7950
 21
10.7627
 31
0.0000
  0
LINE
  8
20
 10
6.7950
 20
10.7627
 30
0.0000
 11
6.7659
 21
10.7918
 31
0.0000
  0
LINE
  8
20
 10
6.7659
 20
10.7918
 30
0.0000
 11
6.7659
 21
10.9374
 31
0.0000
  0
LINE
  8
20
 10
6.6400
 20
10.7627
 30
0.0000
 11
6.6400
 21
10.9374
 31
0.0000
  0
LINE
  8
20
 10
6.6982
 20
10.9374
 30
0.0000
 11
6.5817
 21
10.9374
 31
0.0000
  0
LINE
  8
20
 10
6.4267
 20
10.9374
 30
0.0000
 11
6.4849
 21
10.9374
 31
0.0000
  0
LINE
  8
20
 10
6.4849
 20
10.9374
 30
0.0000
 11
6.5141
 21
10.9083
 31
0.0000
  0
LINE
  8
20
 10
6.5141
 20
10.9083
 30
0.0000
 11
6.5141
 21
10.7918
 31
0.0000
  0
LINE
  8
20
 10
6.5141
 20
10.7918
 30
0.0000
 11
6.4849
 21
10.7627
 31
0.0000
  0
LINE
  8
20
 10
6.4849
 20
10.7627
 30
0.0000
 11
6.4267
 21
10.7627
 31
0.0000
  0
LINE
  8
20
 10
6.4267
 20
10.7627
 30
0.0000
 11
6.3976
 21
10.7918
 31
0.0000
  0
LINE
  8
20
 10
6.3976
 20
10.7918
 30
0.0000
 11
6.3976
 21
10.9083
 31
0.0000
  0
LINE
  8
20
 10
6.3976
 20
10.9083
 30
0.0000
 11
6.4267
 21
10.9374
 31
0.0000
  0
LINE
  8
20
 10
6.3299
 20
10.9374
 30
0.0000
 11
6.3299
 21
10.7918
 31
0.0000
  0
LINE
  8
20
 10
6.3299
 20
10.7918
 30
0.0000
 11
6.3008
 21
10.7627
 31
0.0000
  0
LINE
  8
20
 10
6.3008
 20
10.7627
 30
0.0000
 11
6.2425
 21
10.7627
 31
0.0000
  0
LINE
  8
20
 10
6.2425
 20
10.7627
 30
0.0000
 11
6.2134
 21
10.7918
 31
0.0000
  0
LINE
  8
20
 10
6.2134
 20
10.7918
 30
0.0000
 11
6.2134
 21
10.9374
 31
0.0000
  0
LINE
  8
20
 10
6.0875
 20
10.7627
 30
0.0000
 11
6.0875
 21
10.9374
 31
0.0000
  0
LINE
  8
20
 10
6.1457
 20
10.9374
 30
0.0000
 11
6.0292
 21
10.9374
 31
0.0000
  0
LINE
  8
20
 10
7.8708
 20
2.2083
 30
0.0000
 11
7.8999
 21
2.2374
 31
0.0000
  0
LINE
  8
20
 10
7.8999
 20
2.2374
 30
0.0000
 11
7.9582
 21
2.2374
 31
0.0000
  0
LINE
  8
20
 10
7.9582
 20
2.2374
 30
0.0000
 11
7.9873
 21
2.2083
 31
0.0000
  0
LINE
  8
20
 10
7.9873
 20
2.2083
 30
0.0000
 11
7.9873
 21
2.1792
 31
0.0000
  0
LINE
  8
20
 10
7.9873
 20
2.1792
 30
0.0000
 11
7.9582
 21
2.1501
 31
0.0000
  0
LINE
  8
20
 10
7.9582
 20
2.1501
 30
0.0000
 11
7.8999
 21
2.1501
 31
0.0000
  0
LINE
  8
20
 10
7.8999
 20
2.1501
 30
0.0000
 11
7.8708
 21
2.1209
 31
0.0000
  0
LINE
  8
20
 10
7.8708
 20
2.1209
 30
0.0000
 11
7.8708
 21
2.0918
 31
0.0000
  0
LINE
  8
20
 10
7.8708
 20
2.0918
 30
0.0000
 11
7.8999
 21
2.0627
 31
0.0000
  0
LINE
  8
20
 10
7.8999
 20
2.0627
 30
0.0000
 11
7.9582
 21
2.0627
 31
0.0000
  0
LINE
  8
20
 10
7.9582
 20
2.0627
 30
0.0000
 11
7.9873
 21
2.0918
 31
0.0000
  0
LINE
  8
20
 10
7.8031
 20
2.2374
 30
0.0000
 11
7.8031
 21
2.0627
 31
0.0000
  0
LINE
  8
20
 10
7.8031
 20
2.0627
 30
0.0000
 11
7.6866
 21
2.0627
 31
0.0000
  0
LINE
  8
20
 10
7.5316
 20
2.2374
 30
0.0000
 11
7.5899
 21
2.2374
 31
0.0000
  0
LINE
  8
20
 10
7.5899
 20
2.2374
 30
0.0000
 11
7.6190
 21
2.2083
 31
0.0000
  0
LINE
  8
20
 10
7.6190
 20
2.2083
 30
0.0000
 11
7.6190
 21
2.0918
 31
0.0000
  0
LINE
  8
20
 10
7.6190
 20
2.0918
 30
0.0000
 11
7.5899
 21
2.0627
 31
0.0000
  0
LINE
  8
20
 10
7.5899
 20
2.0627
 30
0.0000
 11
7.5316
 21
2.0627
 31
0.0000
  0
LINE
  8
20
 10
7.5316
 20
2.0627
 30
0.0000
 11
7.5025
 21
2.0918
 31
0.0000
  0
LINE
  8
20
 10
7.5025
 20
2.0918
 30
0.0000
 11
7.5025
 21
2.2083
 31
0.0000
  0
LINE
  8
20
 10
7.5025
 20
2.2083
 30
0.0000
 11
7.5316
 21
2.2374
 31
0.0000
  0
LINE
  8
20
 10
7.3766
 20
2.0627
 30
0.0000
 11
7.3766
 21
2.2374
 31
0.0000
  0
LINE
  8
20
 10
7.4348
 20
2.2374
 30
0.0000
 11
7.3183
 21
2.2374
 31
0.0000
  0
LINE
  8
20
 10
7.2507
 20
2.0627
 30
0.0000
 11
7.1342
 21
2.2374
 31
0.0000
  0
LINE
  8
20
 10
6.9500
 20
2.2083
 30
0.0000
 11
6.9791
 21
2.2374
 31
0.0000
  0
LINE
  8
20
 10
6.9791
 20
2.2374
 30
0.0000
 11
7.0374
 21
2.2374
 31
0.0000
  0
LINE
  8
20
 10
7.0374
 20
2.2374
 30
0.0000
 11
7.0665
 21
2.2083
 31
0.0000
  0
LINE
  8
20
 10
7.0665
 20
2.2083
 30
0.0000
 11
7.0665
 21
2.0918
 31
0.0000
  0
LINE
  8
20
 10
7.0665
 20
2.0918
 30
0.0000
 11
7.0374
 21
2.0627
 31
0.0000
  0
LINE
  8
20
 10
7.0374
 20
2.0627
 30
0.0000
 11
6.9791
 21
2.0627
 31
0.0000
  0
LINE
  8
20
 10
6.9791
 20
2.0627
 30
0.0000
 11
6.9500
 21
2.0918
 31
0.0000
  0
LINE
  8
20
 10
6.8824
 20
2.2374
 30
0.0000
 11
6.8824
 21
2.0918
 31
0.0000
  0
LINE
  8
20
 10
6.8824
 20
2.0918
 30
0.0000
 11
6.8532
 21
2.0627
 31
0.0000
  0
LINE
  8
20
 10
6.8532
 20
2.0627
 30
0.0000
 11
6.7950
 21
2.0627
 31
0.0000
  0
LINE
  8
20
 10
6.7950
 20
2.0627
 30
0.0000
 11
6.7659
 21
2.0918
 31
0.0000
  0
LINE
  8
20
 10
6.7659
 20
2.0918
 30
0.0000
 11
6.7659
 21
2.2374
 31
0.0000
  0
LINE
  8
20
 10
6.6400
 20
2.0627
 30
0.0000
 11
6.6400
 21
2.2374
 31
0.0000
  0
LINE
  8
20
 10
6.6982
 20
2.2374
 30
0.0000
 11
6.5817
 21
2.2374
 31
0.0000
  0
LINE
  8
20
 10
6.4267
 20
2.2374
 30
0.0000
 11
6.4849
 21
2.2374
 31
0.0000
  0
LINE
  8
20
 10
6.4849
 20
2.2374
 30
0.0000
 11
6.5141
 21
2.2083
 31
0.0000
  0
LINE
  8
20
 10
6.5141
 20
2.2083
 30
0.0000
 11
6.5141
 21
2.0918
 31
0.0000
  0
LINE
  8
20
 10
6.5141
 20
2.0918
 30
0.0000
 11
6.4849
 21
2.0627
 31
0.0000
  0
LINE
  8
20
 10
6.4849
 20
2.0627
 30
0.0000
 11
6.4267
 21
2.0627
 31
0.0000
  0
LINE
  8
20
 10
6.4267
 20
2.0627
 30
0.0000
 11
6.3976
 21
2.0918
 31
0.0000
  0
LINE
  8
20
 10
6.3976
 20
2.0918
 30
0.0000
 11
6.3976
 21
2.2083
 31
0.0000
  0
LINE
  8
20
 10
6.3976
 20
2.2083
 30
0.0000
 11
6.4267
 21
2.2374
 31
0.0000
  0
LINE
  8
20
 10
6.3299
 20
2.2374
 30
0.0000
 11
6.3299
 21
2.0918
 31
0.0000
  0
LINE
  8
20
 10
6.3299
 20
2.0918
 30
0.0000
 11
6.3008
 21
2.0627
 31
0.0000
  0
LINE
  8
20
 10
6.3008
 20
2.0627
 30
0.0000
 11
6.2425
 21
2.0627
 31
0.0000
  0
LINE
  8
20
 10
6.2425
 20
2.0627
 30
0.0000
 11
6.2134
 21
2.0918
 31
0.0000
  0
LINE
  8
20
 10
6.2134
 20
2.0918
 30
0.0000
 11
6.2134
 21
2.2374
 31
0.0000
  0
LINE
  8
20
 10
6.0875
 20
2.0627
 30
0.0000
 11
6.0875
 21
2.2374
 31
0.0000
  0
LINE
  8
20
 10
6.1457
 20
2.2374
 30
0.0000
 11
6.0292
 21
2.2374
 31
0.0000
  0
INSERT
  8
31
  2
RECT
 10
21.7100
 20
10.1900
 30
0.0000
 41
0.4476
 42
2.0476
 43
1.0000
 50
90.0000
  0
INSERT
  8
31
  2
RECT
 10
21.7100
 20
11.4600
 30
0.0000
 41
0.4476
 42
2.0476
 43
1.0000
 50
90.0000
  0
INSERT
  8
31
  2
RECT
 10
21.7100
 20
12.7300
 30
0.0000
 41
0.4476
 42
2.0476
 43
1.0000
 50
90.0000
  0
INSERT
  8
31
  2
RECT
 10
21.7100
 20
14.0000
 30
0.0000
 41
0.4476
 42
2.0476
 43
1.0000
 50
90.0000
  0
INSERT
  8
31
  2
RECT
 10
16.5100
 20
14.0000
 30
0.0000
 41
0.4476
 42
2.0476
 43
1.0000
 50
90.0000
  0
INSERT
  8
31
  2
RECT
 10
16.5100
 20
12.7300
 30
0.0000
 41
0.4476
 42
2.0476
 43
1.0000
 50
90.0000
  0
INSERT
  8
31
  2
RECT
 10
16.5100
 20
11.4600
 30
0.0000
 41
0.4476
 42
2.0476
 43
1.0000
 50
90.0000
  0
INSERT
  8
31
  2
RECT
 10
16.5100
 20
10.1900
 30
0.0000
 41
0.4476
 42
2.0476
 43
1.0000
 50
90.0000
  0
INSERT
  8
31
  2
RECT
 10
24.7500
 20
6.7800
 30
0.0000
 41
1.0476
 42
0.7476
 43
1.0000
 50
0.0000
  0
INSERT
  8
31
  2
RECT
 10
26.4500
 20
5.4800
 30
0.0000
 41
1.0476
 42
0.7476
 43
1.0000
 50
0.0000
  0
INSERT
  8
31
  2
RECT
 10
26.4500
 20
6.7800
 30
0.0000
 41
1.0476
 42
0.7476
 43
1.0000
 50
0.0000
  0
INSERT
  8
31
  2
RECT
 10
24.7500
 20
5.4800
 30
0.0000
 41
1.0476
 42
0.7476
 43
1.0000
 50
0.0000
  0
INSERT
  8
31
  2
RECT
 10
11.2500
 20
10.9750
 30
0.0000
 41
0.4476
 42
1.0476
 43
1.0000
 50
90.0000
  0
INSERT
  8
31
  2
RECT
 10
11.2500
 20
11.9250
 30
0.0000
 41
0.4476
 42
1.0476
 43
1.0000
 50
90.0000
  0
INSERT
  8
31
  2
RECT
 10
11.2500
 20
12.8750
 30
0.0000
 41
0.4476
 42
1.0476
 43
1.0000
 50
90.0000
  0
INSERT
  8
31
  2
RECT
 10
8.9500
 20
12.8750
 30
0.0000
 41
0.4476
 42
1.0476
 43
1.0000
 50
90.0000
  0
INSERT
  8
31
  2
RECT
 10
8.9500
 20
10.9750
 30
0.0000
 41
0.4476
 42
1.0476
 43
1.0000
 50
90.0000
  0
INSERT
  8
31
  2
RECT
 10
26.0303
 20
10.6543
 30
0.0000
 41
0.1476
 42
1.0476
 43
1.0000
 50
315.0000
  0
INSERT
  8
31
  2
RECT
 10
26.3838
 20
10.3008
 30
0.0000
 41
0.1476
 42
1.0476
 43
1.0000
 50
315.0000
  0
INSERT
  8
31
  2
RECT
 10
26.7374
 20
9.9472
 30
0.0000
 41
0.1476
 42
1.0476
 43
1.0000
 50
315.0000
  0
INSERT
  8
31
  2
RECT
 10
27.0909
 20
9.5937
 30
0.0000
 41
0.1476
 42
1.0476
 43
1.0000
 50
315.0000
  0
INSERT
  8
31
  2
RECT
 10
27.4445
 20
9.2401
 30
0.0000
 41
0.1476
 42
1.0476
 43
1.0000
 50
315.0000
  0
INSERT
  8
31
  2
RECT
 10
27.7980
 20
8.8866
 30
0.0000
 41
0.1476
 42
1.0476
 43
1.0000
 50
315.0000
  0
INSERT
  8
31
  2
RECT
 10
28.1516
 20
8.5330
 30
0.0000
 41
0.1476
 42
1.0476
 43
1.0000
 50
315.0000
  0
INSERT
  8
31
  2
RECT
 10
28.5051
 20
8.1795
 30
0.0000
 41
0.1476
 42
1.0476
 43
1.0000
 50
315.0000
  0
INSERT
  8
31
  2
RECT
 10
28.8587
 20
7.8259
 30
0.0000
 41
0.1476
 42
1.0476
 43
1.0000
 50
315.0000
  0
INSERT
  8
31
  2
RECT
 10
29.2122
 20
7.4724
 30
0.0000
 41
0.1476
 42
1.0476
 43
1.0000
 50
315.0000
  0
INSERT
  8
31
  2
RECT
 10
29.5658
 20
7.1188
 30
0.0000
 41
0.1476
 42
1.0476
 43
1.0000
 50
315.0000
  0
INSERT
  8
31
  2
RECT
 10
29.9193
 20
6.7652
 30
0.0000
 41
0.1476
 42
1.0476
 43
1.0000
 50
315.0000
  0
INSERT
  8
31
  2
RECT
 10
32.0407
 20
6.7652
 30
0.0000
 41
1.0476
 42
0.1476
 43
1.0000
 50
315.0000
  0
INSERT
  8
31
  2
RECT
 10
32.3942
 20
7.1188
 30
0.0000
 41
1.0476
 42
0.1476
 43
1.0000
 50
315.0000
  0
INSERT
  8
31
  2
RECT
 10
32.7478
 20
7.4724
 30
0.0000
 41
1.0476
 42
0.1476
 43
1.0000
 50
315.0000
  0
INSERT
  8
31
  2
RECT
 10
33.1013
 20
7.8259
 30
0.0000
 41
1.0476
 42
0.1476
 43
1.0000
 50
315.0000
  0
INSERT
  8
31
  2
RECT
 10
33.4549
 20
8.1795
 30
0.0000
 41
1.0476
 42
0.1476
 43
1.0000
 50
315.0000
  0
INSERT
  8
31
  2
RECT
 10
33.8084
 20
8.5330
 30
0.0000
 41
1.0476
 42
0.1476
 43
1.0000
 50
315.0000
  0
INSERT
  8
31
  2
RECT
 10
34.1620
 20
8.8866
 30
0.0000
 41
1.0476
 42
0.1476
 43
1.0000
 50
315.0000
  0
INSERT
  8
31
  2
RECT
 10
34.5155
 20
9.2401
 30
0.0000
 41
1.0476
 42
0.1476
 43
1.0000
 50
315.0000
  0
INSERT
  8
31
  2
RECT
 10
34.8691
 20
9.5937
 30
0.0000
 41
1.0476
 42
0.1476
 43
1.0000
 50
315.0000
  0
INSERT
  8
31
  2
RECT
 10
35.2226
 20
9.9472
 30
0.0000
 41
1.0476
 42
0.1476
 43
1.0000
 50
315.0000
  0
INSERT
  8
31
  2
RECT
 10
35.5762
 20
10.3008
 30
0.0000
 41
1.0476
 42
0.1476
 43
1.0000
 50
315.0000
  0
INSERT
  8
31
  2
RECT
 10
35.9297
 20
10.6543
 30
0.0000
 41
1.0476
 42
0.1476
 43
1.0000
 50
315.0000
  0
INSERT
  8
31
  2
RECT
 10
35.9297
 20
12.7757
 30
0.0000
 41
0.1476
 42
1.0476
 43
1.0000
 50
315.0000
  0
INSERT
  8
31
  2
RECT
 10
35.5762
 20
13.1292
 30
0.0000
 41
0.1476
 42
1.0476
 43
1.0000
 50
315.0000
  0
INSERT
  8
31
  2
RECT
 10
35.2226
 20
13.4828
 30
0.0000
 41
0.1476
 42
1.0476
 43
1.0000
 50
315.0000
  0
INSERT
  8
31
  2
RECT
 10
34.8691
 20
13.8363
 30
0.0000
 41
0.1476
 42
1.0476
 43
1.0000
 50
315.0000
  0
INSERT
  8
31
  2
RECT
 10
34.5155
 20
14.1899
 30
0.0000
 41
0.1476
 42
1.0476
 43
1.0000
 50
315.0000
  0
INSERT
  8
31
  2
RECT
 10
34.1620
 20
14.5434
 30
0.0000
 41
0.1476
 42
1.0476
 43
1.0000
 50
315.0000
  0
INSERT
  8
31
  2
RECT
 10
33.8084
 20
14.8970
 30
0.0000
 41
0.1476
 42
1.0476
 43
1.0000
 50
315.0000
  0
INSERT
  8
31
  2
RECT
 10
33.4549
 20
15.2505
 30
0.0000
 41
0.1476
 42
1.0476
 43
1.0000
 50
315.0000
  0
INSERT
  8
31
  2
RECT
 10
33.1013
 20
15.6041
 30
0.0000
 41
0.1476
 42
1.0476
 43
1.0000
 50
315.0000
  0
INSERT
  8
31
  2
RECT
 10
32.7478
 20
15.9576
 30
0.0000
 41
0.1476
 42
1.0476
 43
1.0000
 50
315.0000
  0
INSERT
  8
31
  2
RECT
 10
32.3942
 20
16.3112
 30
0.0000
 41
0.1476
 42
1.0476
 43
1.0000
 50
315.0000
  0
INSERT
  8
31
  2
RECT
 10
32.0407
 20
16.6647
 30
0.0000
 41
0.1476
 42
1.0476
 43
1.0000
 50
315.0000
  0
INSERT
  8
31
  2
RECT
 10
29.9193
 20
16.6647
 30
0.0000
 41
1.0476
 42
0.1476
 43
1.0000
 50
315.0000
  0
INSERT
  8
31
  2
RECT
 10
29.5658
 20
16.3112
 30
0.0000
 41
1.0476
 42
0.1476
 43
1.0000
 50
315.0000
  0
INSERT
  8
31
  2
RECT
 10
29.2122
 20
15.9576
 30
0.0000
 41
1.0476
 42
0.1476
 43
1.0000
 50
315.0000
  0
INSERT
  8
31
  2
RECT
 10
28.8587
 20
15.6041
 30
0.0000
 41
1.0476
 42
0.1476
 43
1.0000
 50
315.0000
  0
INSERT
  8
31
  2
RECT
 10
28.5051
 20
15.2505
 30
0.0000
 41
1.0476
 42
0.1476
 43
1.0000
 50
315.0000
  0
INSERT
  8
31
  2
RECT
 10
28.1516
 20
14.8970
 30
0.0000
 41
1.0476
 42
0.1476
 43
1.0000
 50
315.0000
  0
INSERT
  8
31
  2
RECT
 10
27.7980
 20
14.5434
 30
0.0000
 41
1.0476
 42
0.1476
 43
1.0000
 50
315.0000
  0
INSERT
  8
31
  2
RECT
 10
27.4445
 20
14.1899
 30
0.0000
 41
1.0476
 42
0.1476
 43
1.0000
 50
315.0000
  0
INSERT
  8
31
  2
RECT
 10
27.0909
 20
13.8363
 30
0.0000
 41
1.0476
 42
0.1476
 43
1.0000
 50
315.0000
  0
INSERT
  8
31
  2
RECT
 10
26.7374
 20
13.4828
 30
0.0000
 41
1.0476
 42
0.1476
 43
1.0000
 50
315.0000
  0
INSERT
  8
31
  2
RECT
 10
26.3838
 20
13.1292
 30
0.0000
 41
1.0476
 42
0.1476
 43
1.0000
 50
315.0000
  0
INSERT
  8
31
  2
RECT
 10
26.0303
 20
12.7757
 30
0.0000
 41
1.0476
 42
0.1476
 43
1.0000
 50
315.0000
  0
ENDSEC
  0
EOF
